<?xml version="1.0" encoding="iso-8859-1"?>
<!-- Generator: Adobe Illustrator 19.0.0, SVG Export Plug-In . SVG Version: 6.00 Build 0)  -->
<svg version="1.1" id="Layer_1" xmlns="http://www.w3.org/2000/svg" xmlns:xlink="http://www.w3.org/1999/xlink" x="0px" y="0px"
	 viewBox="0 0 512.001 512.001" style="enable-background:new 0 0 512.001 512.001;" xml:space="preserve">
<path style="fill:#5D9BEB;" d="M512.001,256.006c0,141.395-114.606,255.998-255.996,255.994
	C114.606,512.004,0.001,397.402,0.001,256.006C-0.007,114.61,114.606,0,256.005,0C397.395,0,512.001,114.614,512.001,256.006z"/>
<path style="fill:#4988DB;" d="M502.207,326.094l-0.332-0.354c-0.086-0.091-0.211-0.125-0.3-0.21L314.183,138.048
	c-1.339-1.429-3.203-2.237-5.156-2.237H96.927c-3.907,0-7.07,3.162-7.07,7.07v226.238c0,2.379,1.249,4.377,3.045,5.659
	c0.457,0.641,0.991,1.175,1.632,1.632c0.457,0.639,133.193,133.374,133.834,133.831c0.081,0.114,0.203,0.183,0.289,0.29
	c8.989,0.955,18.107,1.47,27.347,1.47C373.081,512.003,471.722,433.394,502.207,326.094z"/>
<path style="fill:#F4F6F9;" d="M420.232,251.167L314.183,138.048c-1.34-1.429-3.203-2.237-5.157-2.237H96.927
	c-3.908,0-7.07,3.163-7.07,7.07v226.238c0,3.908,3.163,7.07,7.07,7.07h212.098c1.954,0,3.818-0.807,5.157-2.237l106.049-113.119
	C422.78,258.113,422.78,253.887,420.232,251.167z M305.96,362.049H103.997V149.951H305.96L405.381,256L305.96,362.049z"/>
<g>
</g>
<g>
</g>
<g>
</g>
<g>
</g>
<g>
</g>
<g>
</g>
<g>
</g>
<g>
</g>
<g>
</g>
<g>
</g>
<g>
</g>
<g>
</g>
<g>
</g>
<g>
</g>
<g>
</g>
</svg>
